<svg width="24" height="16" viewBox="0 0 24 16" fill="none" xmlns="http://www.w3.org/2000/svg">
<path d="M17.8889 5.50426V4.81623C17.8889 4.43593 17.5811 4.1282 17.2008 4.1282H16.1097L14.9352 2.95372C14.8062 2.8247 14.6314 2.75213 14.4487 2.75213H13.7607V1.37607H14.4487C14.829 1.37607 15.1367 1.06833 15.1367 0.688033C15.1367 0.307734 14.829 0 14.4487 0C12.945 0 9.05292 0 7.56837 0C7.18807 0 6.88034 0.307734 6.88034 0.688033C6.88034 1.06833 7.18807 1.37607 7.56837 1.37607H8.2564V2.75213H7.56837C7.38563 2.75213 7.21091 2.8247 7.08193 2.95372L5.70587 4.32979C5.57684 4.45877 5.50427 4.63349 5.50427 4.81623V11.6966C5.50427 11.8793 5.57684 12.054 5.70587 12.183L8.458 14.9351C8.58698 15.0642 8.76169 15.1367 8.94444 15.1367H15.8248C16.0855 15.1367 16.3233 14.9896 16.4402 14.7564L17.8163 12.0043C17.864 11.9089 17.8889 11.8034 17.8889 11.6966H19.3567V5.50426H17.8889ZM13.6881 9.25216L12.312 12.0043C12.143 12.3415 11.7323 12.4826 11.3888 12.312C11.0489 12.142 10.9111 11.7288 11.0811 11.3888L11.9593 9.63246H10.3205C9.81108 9.63246 9.47569 9.09391 9.70503 8.63669L11.0811 5.88456C11.2511 5.54527 11.6643 5.40752 12.0043 5.57683C12.3443 5.74682 12.482 6.16005 12.312 6.50003L11.4338 8.25639H13.0726C13.5821 8.25639 13.9174 8.79494 13.6881 9.25216Z" fill="#666666"/>
<path d="M3.44016 4.12817C3.05986 4.12817 2.75213 4.43591 2.75213 4.81621V7.56834H1.37607V4.81621C1.37607 4.43591 1.06833 4.12817 0.688033 4.12817C0.307734 4.12817 0 4.43591 0 4.81621V11.6965C0 12.0768 0.307734 12.3846 0.688033 12.3846C1.06833 12.3846 1.37607 12.0768 1.37607 11.6965V8.9444H2.75213V11.6965C2.75213 12.0768 3.05986 12.3846 3.44016 12.3846H4.1282V4.12817H3.44016Z" fill="#666666"/>
<path d="M22.1088 4.12817H21.4207C21.0408 4.12817 20.7327 4.43623 20.7327 4.81621V13.0726C20.7327 13.4526 21.0408 13.7606 21.4207 13.7606H22.1088C22.8688 13.7606 23.4848 13.1446 23.4848 12.3846V5.50424C23.4848 4.74424 22.8688 4.12817 22.1088 4.12817Z" fill="#666666"/>
</svg>
