<svg width="16" height="19" viewBox="0 0 16 19" fill="none" xmlns="http://www.w3.org/2000/svg">
<path d="M15.7173 2.49096L14.134 0.907619C13.9794 0.752985 13.7289 0.752985 13.5743 0.907619C13.4197 1.06225 13.4197 1.31274 13.5743 1.46734L14.8778 2.7708L13.5743 4.07427C13.5001 4.14849 13.4583 4.24898 13.4583 4.35415V5.54164C13.4583 6.4149 14.1684 7.12499 15.0417 7.12499V13.8541C15.0417 14.0725 14.8642 14.25 14.6458 14.25C14.4274 14.25 14.25 14.0726 14.25 13.8541V13.0625C14.25 12.4076 13.7173 11.875 13.0625 11.875H12.6667V1.58334C12.6667 0.710087 11.9566 0 11.0833 0H3.16669C2.29347 0 1.58334 0.710087 1.58334 1.58334V15.8333C0.710124 15.8333 0 16.5434 0 17.4167V18.6042C0 18.823 0.177048 19 0.395845 19H13.8542C14.073 19 14.25 18.823 14.25 18.6042V17.4167C14.25 16.5434 13.5399 15.8333 12.6667 15.8333V12.6667H13.0625C13.2809 12.6667 13.4584 12.8441 13.4584 13.0625V13.8542C13.4584 14.509 13.991 15.0417 14.6459 15.0417C15.3007 15.0417 15.8334 14.509 15.8334 13.8542V2.77084C15.8333 2.66567 15.7916 2.56518 15.7173 2.49096ZM11.0833 6.73649C11.0833 6.95529 10.9063 7.13233 10.6875 7.13233H3.56249C3.3437 7.13233 3.16665 6.95529 3.16665 6.73649V1.97915C3.16665 1.76035 3.3437 1.58331 3.56249 1.58331H10.6875C10.9063 1.58331 11.0833 1.76035 11.0833 1.97915V6.73649Z" fill="#666666"/>
</svg>
