<svg xmlns="http://www.w3.org/2000/svg" viewBox="0 0 512 512"><path fill="#e6e6e6" d="M358.602 408.195H30.118c-11.09 0-20.078-8.988-20.078-20.078v-265c0-11.09 8.988-20.078 20.078-20.078h451.766c11.09 0 20.078 8.988 20.078 20.078v265c0 11.09-8.988 20.078-20.078 20.078h-42.969"/><path d="M481.883 93H30.117C13.512 93 0 106.512 0 123.117v265c0 16.605 13.512 30.117 30.117 30.117h328.484c5.543 0 10.039-4.496 10.039-10.039 0-5.543-4.496-10.039-10.039-10.039H30.117c-5.535 0-10.039-4.504-10.039-10.039v-265c0-5.535 4.504-10.039 10.039-10.039h451.766c5.535 0 10.039 4.504 10.039 10.039v265c0 5.535-4.504 10.039-10.039 10.039h-42.969c-5.543 0-10.039 4.496-10.039 10.039 0 5.543 4.496 10.039 10.039 10.039h42.969c16.605 0 30.117-13.512 30.117-30.117v-265C512 106.512 498.488 93 481.883 93zm0 0"/><path d="M79.813 308.844V151.227c0-5.543-4.496-10.039-10.039-10.039-5.547 0-10.039 4.496-10.039 10.039v157.617c0 5.543 4.492 10.039 10.039 10.039 5.543 0 10.039-4.496 10.039-10.039zm0 0M116.957 308.844V162.27c0-5.543-4.496-10.039-10.039-10.039-5.547 0-10.039 4.496-10.039 10.039v146.574c0 5.543 4.492 10.039 10.039 10.039 5.543 0 10.039-4.496 10.039-10.039zm0 0M154.102 308.844V183.352c0-5.543-4.496-10.039-10.039-10.039-5.543 0-10.039 4.496-10.039 10.039v125.492c0 5.543 4.496 10.039 10.039 10.039 5.543 0 10.039-4.496 10.039-10.039zm0 0M191.246 308.844V151.227c0-5.543-4.492-10.039-10.039-10.039-5.543 0-10.039 4.496-10.039 10.039v157.617c0 5.543 4.496 10.039 10.039 10.039 5.547 0 10.039-4.496 10.039-10.039zm0 0M228.391 308.844v-54.832c0-5.543-4.492-10.039-10.039-10.039-5.543 0-10.039 4.496-10.039 10.039v54.832c0 5.543 4.496 10.039 10.039 10.039 5.547 0 10.039-4.496 10.039-10.039zm0 0M265.539 308.844V190.672c0-5.547-4.496-10.039-10.043-10.039-5.543 0-10.039 4.492-10.039 10.039v118.172c0 5.543 4.496 10.039 10.039 10.039 5.547 0 10.043-4.496 10.043-10.039zm0 0M302.684 308.844V151.227c0-5.543-4.496-10.039-10.039-10.039-5.547 0-10.039 4.496-10.039 10.039v157.617c0 5.543 4.492 10.039 10.039 10.039 5.543 0 10.039-4.496 10.039-10.039zm0 0M339.828 308.844v-87.859c0-5.547-4.496-10.039-10.039-10.039-5.547 0-10.039 4.492-10.039 10.039v87.859c0 5.543 4.492 10.039 10.039 10.039 5.543 0 10.039-4.496 10.039-10.039zm0 0M366.934 158.254c-5.543 0-10.039 4.496-10.039 10.039v140.551c0 5.543 4.496 10.039 10.039 10.039 5.543 0 10.039-4.496 10.039-10.039V168.293c0-5.543-4.496-10.039-10.039-10.039zm0 0M404.078 180.633c-5.543 0-10.039 4.492-10.039 10.039v118.172c0 5.543 4.496 10.039 10.039 10.039 5.547 0 10.039-4.496 10.039-10.039V190.672c0-5.547-4.492-10.039-10.039-10.039zm0 0M451.262 308.844V151.227c0-5.543-4.492-10.039-10.039-10.039-5.543 0-10.039 4.496-10.039 10.039v157.617c0 5.543 4.496 10.039 10.039 10.039 5.547 0 10.039-4.496 10.039-10.039zm0 0M78.918 376.602c1.203.688 2.637 1.039 4.262 1.039 1.621 0 3.055-.352 4.262-1.039 1.457-.836 2.23-2.113 2.23-3.695v-5.617h1.242c.879 0 2.172-.348 3.336-1.996.82-1.16 1.234-2.457 1.234-3.855 0-1.445-.344-2.734-1.023-3.84-.813-1.316-2.039-2.012-3.551-2.012h-1.242v-3.273c0-1.582-.793-2.898-2.242-3.703-1.203-.668-2.633-1.012-4.246-1.012-1.617 0-3.043.34-4.246 1.012-.164.09-.32.188-.465.293l6.891-13.82.043-.094c.297-.711.434-1.281.434-1.793 0-1.105-.422-2.691-2.426-3.957-1.391-.875-2.758-1.32-4.063-1.32-2.43 0-4.328 1.152-5.492 3.352L59.11 359.913c-.461.852-.691 1.73-.691 2.613 0 1.41.484 2.613 1.398 3.477.902.855 2.059 1.285 3.43 1.285h13.445v5.621c0 1.586.77 2.863 2.227 3.695zm-3.785-21.016l1.558-3.121v3.121zm0 0M110.648 374.16c3.074 2.563 7.293 3.863 12.527 3.863 4.984 0 9.094-1.32 12.215-3.93 3.199-2.676 4.82-6.805 4.82-12.273v-1.215c0-5.316-1.625-9.285-4.828-11.793-3.094-2.414-7.242-3.641-12.332-3.641h-2.531l.414-5.551h12.594c1.004 0 2.406-.348 3.402-2.008.648-1.086.98-2.379.98-3.84 0-1.465-.332-2.758-.98-3.844-.996-1.66-2.398-2.008-3.402-2.008h-20.383c-1.289 0-2.906.766-3.285 4.414l-1.727 16.125c-.09.98-.137 1.633-.137 1.988 0 1.648.418 2.957 1.234 3.895.871 1.004 2.254 1.508 4.105 1.508h9.715c1.371 0 2.387.363 3.098 1.102.719.75 1.082 1.98 1.082 3.656v1.211c0 3.199-1.25 4.5-4.309 4.5-1.316 0-2.383-.258-3.172-.777-.617-.402-.883-.887-.883-1.613 0-1.609-.484-2.898-1.449-3.828-.973-.941-2.574-1.383-5.039-1.383-2.02 0-3.543.414-4.656 1.27-1.215.938-1.836 2.5-1.836 4.645.004 3.691 1.602 6.895 4.762 9.527zm0 0M171.098 339.621c1.281 0 2.348.258 3.168.766.777.484.883.996.883 1.434 0 1.922.871 5.148 6.684 5.148 2.039 0 3.523-.402 4.535-1.238 1.086-.895 1.633-2.336 1.633-4.293 0-3.477-1.441-6.637-4.293-9.391-2.832-2.738-6.969-4.129-12.289-4.129-5.277 0-9.586 1.344-12.809 3.984-3.313 2.719-4.992 6.957-4.992 12.602v16.934c0 5.633 1.621 9.867 4.813 12.582 3.117 2.656 7.297 4 12.414 4 5.074 0 9.227-1.344 12.348-4 3.191-2.715 4.813-6.949 4.813-12.582v-.574c0-5.211-1.418-9.059-4.203-11.434-2.719-2.316-6.328-3.492-10.723-3.492-2.563 0-4.727.445-6.48 1.328v-2.762c0-3.422 1.344-4.883 4.5-4.883zm3.925 22.723c0 4.406-2.113 5-4.184 5-2.098 0-4.242-.594-4.242-5v-1.184c0-3.227 1.211-4.543 4.18-4.543 2.102 0 4.246.609 4.246 5.133zm0 0M208.523 376.656c1.195.652 2.621.984 4.234.984 1.609 0 3.031-.332 4.23-.984 1.453-.789 2.258-2.066 2.258-3.59v-40.637c0-.984-.355-2.391-2.059-3.5-1.16-.754-2.457-1.137-3.855-1.137-1.055 0-1.949.23-2.633.664l-8.418 5.102c-1.699.996-2.598 2.617-2.598 4.684 0 1.352.402 2.574 1.188 3.641.883 1.195 2.074 1.828 3.449 1.828.684 0 1.344-.164 1.945-.473v29.828c0 1.527.801 2.801 2.258 3.59zm0 0M253.832 365.457c-.395.395-1.316.863-3.477.863-4.148 0-4.148-1.543-4.148-2.199 0-2.184-.93-3.285-1.711-3.828-.988-.68-2.559-1-4.941-1-2.184 0-3.652.34-4.625 1.066-1.086.809-1.637 2.18-1.637 4.082 0 3.52 1.449 6.703 4.305 9.453 2.84 2.742 7.027 4.129 12.441 4.129 5.172 0 9.422-1.293 12.637-3.84 3.32-2.633 5-6.703 5-12.105v-1.215c0-4.301-1.738-7.586-5.063-9.637.816-.816 1.508-1.836 2.074-3.051.965-2.09 1.457-4.477 1.457-7.094 0-6.004-2.738-13.16-15.785-13.16-5.379 0-9.453 1.316-12.102 3.91-2.656 2.605-4.004 5.645-4.004 9.031 0 2.102.477 3.531 1.457 4.371.938.805 2.559 1.16 5.262 1.16 2.156 0 3.68-.418 4.66-1.285 1.02-.902 1.535-2.18 1.535-3.793 0-.926.32-1.129.441-1.207.289-.18 1.031-.488 2.75-.488 2.297 0 3.191.852 3.191 3.039 0 1.043-.109 1.879-.328 2.496-.105.297-.285.688-.559.848-.383.23-.742.383-1.066.449-.375.086-.875.125-1.484.125-1.309 0-4.359.52-4.359 5.34s3.043 5.34 4.352 5.34c1.676 0 2.918.266 3.699.793.738.504.895 1.805.895 2.813v1.211c0 1.645-.301 2.813-.867 3.383zm0 0M280.895 362.676v.762c0 4.969 1.656 8.711 4.926 11.117 3.125 2.301 7.262 3.469 12.297 3.469 5.035 0 9.164-1.168 12.27-3.473 3.246-2.406 4.891-6.145 4.891-11.113v-.762c0-5.617-1.996-9.645-5.945-12.02 2.379-1.715 4.41-4.711 4.41-9.945 0-4.293-1.484-7.559-4.414-9.711-2.789-2.043-6.559-3.082-11.211-3.082s-8.426 1.039-11.211 3.082c-2.93 2.152-4.414 5.418-4.414 9.711 0 5.227 2.027 8.223 4.402 9.938-3.984 2.375-6 6.406-6 12.027zm12.976-1.801c0-3.297 1.273-4.703 4.246-4.703 2.93 0 4.18 1.406 4.18 4.703v1.438c0 4.434-2.113 5.031-4.18 5.031-2.098 0-4.246-.598-4.246-5.031zm4.246-15.383c-1.82 0-3.031-.582-3.031-3.414 0-2.887 1.211-3.477 3.031-3.477s3.031.59 3.031 3.477c0 2.832-1.211 3.414-3.031 3.414zm0 0M345.781 366.32c-1.285 0-2.352-.258-3.168-.766-.781-.48-.883-.996-.883-1.434 0-1.922-.871-5.148-6.684-5.148-2.039 0-3.523.406-4.535 1.238-1.082.895-1.633 2.34-1.633 4.293 0 3.477 1.445 6.637 4.293 9.391 2.832 2.738 6.969 4.129 12.289 4.129 5.277 0 9.586-1.34 12.809-3.984 3.313-2.719 4.992-6.957 4.992-12.602v-16.934c0-5.633-1.617-9.867-4.813-12.582-3.121-2.656-7.297-4-12.41-4-5.078 0-9.23 1.344-12.352 4-3.191 2.715-4.809 6.949-4.809 12.582v.578c0 5.211 1.414 9.055 4.203 11.43 2.715 2.316 6.324 3.492 10.719 3.492 2.563 0 4.73-.445 6.48-1.328v2.762c0 3.422-1.344 4.883-4.5 4.883zm-3.926-22.718c0-4.406 2.113-5.004 4.184-5.004 2.098 0 4.242.598 4.242 5.004v1.184c0 3.223-1.211 4.539-4.18 4.539-2.098 0-4.246-.609-4.246-5.133zm0 0M408.945 375.625c.762-1.141 1.148-2.453 1.148-3.902 0-1.461-.395-2.762-1.176-3.871-1.117-1.582-2.438-1.914-3.352-1.914h-14.988c.227-.355.602-.801 1.211-1.34 1.32-1.176 2.945-2.402 4.824-3.648 1.973-1.309 3.965-2.773 5.922-4.348 2.055-1.652 3.832-3.719 5.289-6.145 1.504-2.512 2.27-5.227 2.27-8.074 0-4.434-1.707-8.012-5.074-10.637-3.25-2.539-7.082-3.824-11.383-3.824-4.188 0-7.891 1.234-11.012 3.672-3.23 2.527-4.871 5.926-4.871 10.102 0 5.813 3.711 6.68 5.918 6.68 1.898 0 3.477-.488 4.691-1.453 1.641-1.305 1.988-2.805 1.988-3.832 0-1.262.285-2.152.844-2.648.629-.551 1.449-.82 2.504-.82 1.199 0 2.039.289 2.563.883.574.648.852 1.367.852 2.199 0 1.121-.582 2.352-1.727 3.656-1.324 1.504-2.973 2.973-4.918 4.375l-5.871 4.395c-2.047 1.539-3.816 3.309-5.262 5.258-1.559 2.098-2.348 4.262-2.348 6.426v6.234c0 .969.371 2.352 2.145 3.461 1.195.75 2.445 1.133 3.707 1.133h22.746c.922 0 2.25-.352 3.359-2.016zm0 0M453.168 374.02c3.172-2.719 4.781-6.949 4.781-12.582v-16.934c0-5.629-1.609-9.863-4.781-12.578-3.102-2.656-7.258-4.004-12.344-4.004-5.031 0-9.148 1.348-12.238 4.004-3.164 2.715-4.766 6.949-4.766 12.578v16.934c0 5.633 1.602 9.863 4.766 12.578 3.09 2.66 7.211 4.008 12.238 4.008 5.086 0 9.242-1.348 12.344-4.004zm-8.199-12.582c0 4.305-2.094 4.883-4.145 4.883-1.988 0-4.023-.578-4.023-4.883v-16.934c0-4.301 2.035-4.883 4.023-4.883 2.051 0 4.145.582 4.145 4.883zm0 0M228.367 211.172c-1.27-5.398-6.676-8.742-12.07-7.473l-.488.113c-5.395 1.27-8.742 6.672-7.473 12.07 1.086 4.625 5.211 7.742 9.766 7.742.758 0 1.531-.086 2.305-.27l.488-.113c5.395-1.27 8.742-6.672 7.473-12.07zm0 0M397.82 398.363l-.484.113c-5.398 1.266-8.75 6.668-7.488 12.066 1.086 4.629 5.211 7.754 9.766 7.754.758 0 1.531-.086 2.301-.27l.488-.113c5.398-1.266 8.746-6.664 7.484-12.063-1.266-5.402-6.664-8.75-12.066-7.488zm0 0"/></svg>