<svg xmlns="http://www.w3.org/2000/svg" viewBox="0 0 57 57"><path fill="#e7eced" d="M.5 18h56v39H.5z"/><path fill="#424a60" d="M22.5 50h-3V25c0-.13-.026-.26-.077-.382-.101-.245-.296-.44-.541-.541-.244-.101-.519-.101-.764 0-.123.051-.234.125-.326.217l-5.999 5.999c-.391.391-.391 1.023 0 1.414.195.195.451.293.707.293.256 0 .512-.098.707-.293l4.293-4.293V50h-3c-.553 0-1 .447-1 1 0 .553.447 1 1 1h8c.553 0 1-.447 1-1 0-.553-.447-1-1-1zM41.216 36.921C43.185 35.681 44.5 33.494 44.5 31c0-3.859-3.141-7-7-7s-7 3.141-7 7c0 2.494 1.315 4.681 3.284 5.921C31.24 38.262 29.5 40.93 29.5 44c0 4.411 3.589 8 8 8s8-3.589 8-8c0-3.07-1.74-5.738-4.284-7.079zM32.5 31c0-2.757 2.243-5 5-5s5 2.243 5 5-2.243 5-5 5-5-2.243-5-5zm5 19c-3.309 0-6-2.691-6-6s2.691-6 6-6 6 2.691 6 6-2.691 6-6 6zM41.5 5H.5v13h56V5z"/><path fill="#38454f" d="M17.5 9c0-.53.211-1.039.586-1.414S18.97 7 19.5 7c.53 0 1.039.211 1.414.586S21.5 8.47 21.5 9c0 .53-.211 1.039-.586 1.414S20.03 11 19.5 11c-.53 0-1.039-.211-1.414-.586S17.5 9.53 17.5 9M23.5 9c0-.53.211-1.039.586-1.414S24.97 7 25.5 7c.53 0 1.039.211 1.414.586S27.5 8.47 27.5 9c0 .53-.211 1.039-.586 1.414S26.03 11 25.5 11c-.53 0-1.039-.211-1.414-.586S23.5 9.53 23.5 9M29.5 9c0-.53.211-1.039.586-1.414S30.97 7 31.5 7c.53 0 1.039.211 1.414.586S33.5 8.47 33.5 9c0 .53-.211 1.039-.586 1.414S32.03 11 31.5 11c-.53 0-1.039-.211-1.414-.586S29.5 9.53 29.5 9M35.5 9c0-.53.211-1.039.586-1.414S36.97 7 37.5 7c.53 0 1.039.211 1.414.586S39.5 8.47 39.5 9c0 .53-.211 1.039-.586 1.414S38.03 11 37.5 11c-.53 0-1.039-.211-1.414-.586S35.5 9.53 35.5 9"/><path fill="#afb6bb" d="M37.5 0c-1.13 0-2.162.391-3 1.025.534.405.979.912 1.315 1.495.481-.328 1.061-.52 1.685-.52 1.654 0 3 1.346 3 3s-1.346 3-3 3c-.553 0-1 .447-1 1 0 .553.447 1 1 1 2.757 0 5-2.243 5-5s-2.243-5-5-5z"/><path fill="#839594" d="M33.185 2.52c-.424.734-.685 1.573-.685 2.48h2c0-1.03-.522-1.939-1.315-2.48zM27.185 2.52c-.424.734-.685 1.573-.685 2.48h2c0-1.03-.522-1.939-1.315-2.48z"/><path fill="#afb6bb" d="M35.815 2.52c-.337-.583-.781-1.09-1.315-1.495C33.662.391 32.63 0 31.5 0s-2.162.391-3 1.025c.534.405.979.912 1.315 1.495.481-.328 1.061-.52 1.685-.52.624 0 1.204.192 1.685.52.793.541 1.315 1.45 1.315 2.48 0 1.654-1.346 3-3 3-.553 0-1 .447-1 1 0 .553.447 1 1 1 2.757 0 5-2.243 5-5 0-.907-.261-1.746-.685-2.48z"/><path fill="#839594" d="M21.185 2.52c-.424.734-.685 1.573-.685 2.48h2c0-1.03-.522-1.939-1.315-2.48z"/><path fill="#afb6bb" d="M29.815 2.52c-.337-.583-.781-1.09-1.315-1.495C27.662.391 26.63 0 25.5 0s-2.162.391-3 1.025c.534.405.979.912 1.315 1.495.481-.328 1.061-.52 1.685-.52.624 0 1.204.192 1.685.52.793.541 1.315 1.45 1.315 2.48 0 1.654-1.346 3-3 3-.553 0-1 .447-1 1 0 .553.447 1 1 1 2.757 0 5-2.243 5-5 0-.907-.261-1.746-.685-2.48z"/><path fill="#afb6bb" d="M23.815 2.52c-.337-.583-.781-1.09-1.315-1.495C21.662.391 20.63 0 19.5 0c-2.757 0-5 2.243-5 5h2c0-1.654 1.346-3 3-3 .624 0 1.204.192 1.685.52.793.541 1.315 1.45 1.315 2.48 0 1.654-1.346 3-3 3-.553 0-1 .447-1 1 0 .553.447 1 1 1 2.757 0 5-2.243 5-5 0-.907-.261-1.746-.685-2.48z"/></svg>