<svg xmlns="http://www.w3.org/2000/svg" viewBox="0 0 512 512"><path fill="#ed5100" d="M148.14 88.2c4.03-2.23 8.01-5.46 12.89-5.08 2.66-.02 5.09 1.2 7.38 2.41 54.55 30.25 109.08 60.55 163.65 90.77-5.41 3.83-11.45 6.63-16.99 10.24-1.12.53-2.25 1.05-3.37 1.56-.26-4.21.14-8.45-.35-12.64-.74-6.14-4.75-11.83-10.41-14.38-2.09-.78-4.41-.35-6.29.75-5.37 3.03-10.64 6.25-16.06 9.2-10.91-6.93-22.2-13.42-33.76-19.19-.46 6.69-.12 13.4-.15 20.1l-.38-.33c.09-10.51.1-21.01-.03-31.51.05-7.01-4.05-13.91-10.43-16.91-3.54-1.55-6.87.96-9.82 2.63-.54-9.4-10.34-15.3-19.09-14.72-4.51.11-8.69 2.03-12.53 4.24-34.62 19.96-69.2 40-103.83 59.95-4.26 2.44-8.83 4.48-12.73 7.47 12.37 7.11 24.79 14.13 37.21 21.16 6.68 3.73 13.25 7.67 20.04 11.21 6.47 3.3 12.3 7.94 19.05 10.59.83.89 1.8 1.64 2.9 2.18 15.32 8.23 30.34 16.98 45.59 25.33 6.11 3.4 12.02 7.15 18.12 10.58 8.82 4.79 17.5 9.87 26.5 14.32 1.28 6.43 2.47 12.91 3.17 19.43-10.14-4.44-19.3-10.83-29.21-15.75-57.24-31.76-114.58-63.35-171.8-95.15-9.29-4.92-18.32-10.31-27.48-15.47-3.35-1.95-7.33-1.8-11.05-1.37 46.51-27.06 92.83-54.44 139.26-81.62zM343.31 169.62c.08-.05.24-.14.32-.19-.08.05-.24.14-.32.19zM393.62 224.99c3.85-2.94 8.24-5.04 12.35-7.58 12.22 7.54 24.31 15.31 36.44 23 .16.11.47.31.63.42.21.13.64.41.85.55l1.46.91c.18.11.53.33.7.44.21.13.62.39.83.52l1.51.92c.09.06.26.16.34.21.68.44 2.04 1.3 2.72 1.73.1.07.3.2.41.27l1.51.98c.17.12.51.35.68.46.21.13.61.39.81.52 11.64 7.2 23.18 14.57 34.72 21.93 8.94 5.8 14.74 16.09 15.04 26.75.16 8.79.01 17.59.08 26.38-.35 1.8-.07 4.33-2.12 5.15-43.8 25.21-87.6 50.42-131.4 75.64-4.44 2.4-8.68 5.69-13.89 6.09.29-8.73.07-17.47.12-26.21.05-10.91-5.97-21.24-14.78-27.45-.06-.05-.2-.15-.26-.19-.69-.46-2.05-1.36-2.73-1.81-.12-.08-.36-.22-.48-.3l-1.21-.71c-.26-.16-.79-.49-1.05-.65-.38-.24-1.14-.7-1.52-.94l-.64-.38c-.09-.05-.26-.16-.35-.21-15.64-9.82-31.38-19.51-46.76-29.73-.09-.05-.27-.17-.36-.23l-1.51-.94c-.08-.05-.25-.15-.33-.2l-2.76-1.76c-.07-.05-.2-.13-.27-.18-.7-.44-2.1-1.32-2.79-1.76-.09-.05-.26-.15-.35-.2l-1.54-.89c-.08-.05-.24-.14-.32-.18-6.06-3.69-12.09-7.43-17.99-11.37 4.29-3.3 9.16-5.79 13.81-8.52 7.41 3.04 14.59 6.85 21.74 10.51 9.24 3.99 18.45 8.03 27.4 12.66 8.63 3.5 16.69 8.25 25.34 11.73 6.14 4.15 13.52 5.99 19.58 10.27 8.35 5.86 13.9 15.15 16.2 25 1.54 7.43 1.05 15.05 1.37 22.59l.08 2c8.03-3.68 15.36-8.81 23.14-13.01 5.8-3.23 11.5-6.63 17.25-9.95 17.64-10.37 35.46-20.43 53.11-30.78 1.26-.8 2.97-1.62 2.7-3.42.11-7.36-.06-14.73.05-22.09-.57-8.45-4.11-16.4-8.85-23.31-3.46-5.16-8.63-8.74-13.44-12.53-10.83-7.77-20.74-16.73-31.77-24.22-8.86-6.84-17.94-13.36-26.7-20.33-2.3-1.83-4.91-3.31-6.8-5.6m100.73 61.33c-6.55 1.53-10.24 8.52-10.68 14.8-.18 5.97-.07 11.94-.12 17.9.06 2.55.1 5.48 2.11 7.36 3.61 2.11 7.52-1.17 9.73-3.91 5.89-7.53 3.22-17.61 3.84-26.41.13-3.59.14-9.89-4.88-9.74m-124.09 71.14c-5.6 2.38-8.62 8.64-9 14.47-.16 6.38-.07 12.77-.05 19.16.09 2.58.73 6.13 3.77 6.66 4.29.08 7.67-3.52 9.6-7.03 3.3-6.03 2.01-13.08 2.27-19.63-.22-3.97.64-8.2-1-11.94-.89-2.17-3.63-2.7-5.59-1.69z"/><path fill="#ededed" d="M192.4 115.34c3.84-2.21 8.02-4.13 12.53-4.24 8.75-.58 18.55 5.32 19.09 14.72-35.11 20.12-70.06 40.54-105.13 60.73-2.29 1.01-4.3 2.56-5.53 4.78-.53-5.94-3.65-12.06-9.6-14.08-4.71-2.75-10.1-1.57-15.19-1.96 34.63-19.95 69.21-39.99 103.83-59.95z"/><path fill="#525e65" d="M224.02 125.82c2.95-1.67 6.28-4.18 9.82-2.63 6.38 3 10.48 9.9 10.43 16.91.13 10.5.12 21 .03 31.51-30.59 18.25-61.57 35.87-92.16 54.11-6.75-2.65-12.58-7.29-19.05-10.59.31-6.71 1.2-13.94-2-20.14-2.72-4.24-6.84-8.34-12.2-8.44 35.07-20.19 70.02-40.61 105.13-60.73zM294.65 161.83c1.88-1.1 4.2-1.53 6.29-.75 5.66 2.55 9.67 8.24 10.41 14.38.49 4.19.09 8.43.35 12.64-22.47 13.5-45.18 26.59-67.73 39.97-2.02 1.27-4.3 2.17-6.06 3.82.39 6.16 2.11 12.14 2.68 18.28l-1.32 1.76c-6.86 3.93-13.62 8.02-20.52 11.88-6.1-3.43-12.01-7.18-18.12-10.58-.21-6.79 1.05-14.1-2.41-20.31-2.35-4.43-6.73-8.72-12.11-8.24 24.8-14.31 49.66-28.56 74.26-43.23 6.23-3.18 12.23-6.8 18.22-10.42 5.42-2.95 10.69-6.17 16.06-9.2z"/><path fill="#f07433" d="M363.19 157.96c6.99-4.22 14.13-8.18 21.05-12.51 2.66 1.11 5.09 2.7 7.61 4.11-13.86 8.47-27.96 16.57-41.96 24.82-.12-.31-.37-.92-.49-1.23 3.85-4.07 7.93-7.92 11.86-11.91.97-.87 1.54-2.06 1.93-3.28zM311.7 188.1c1.12-.51 2.25-1.03 3.37-1.56.14.32.41.96.55 1.28-4.25 5.03-9.96 8.84-13.56 14.39-1.7 1.18-3.43 2.31-5.11 3.52-17.45 9.76-34.53 20.2-51.82 30.26-2.44-1.3-4.85-2.66-7.22-4.1 1.76-1.65 4.04-2.55 6.06-3.82 22.55-13.38 45.26-26.47 67.73-39.97z"/><path fill="#e33400" d="M391.85 149.56c4.67 22.62 9.11 45.3 14.12 67.85-4.11 2.54-8.5 4.64-12.35 7.58 1.89 2.29 4.5 3.77 6.8 5.6 8.76 6.97 17.84 13.49 26.7 20.33 11.03 7.49 20.94 16.45 31.77 24.22 4.81 3.79 9.98 7.37 13.44 12.53 4.74 6.91 8.28 14.86 8.85 23.31-.11 7.36.06 14.73-.05 22.09.27 1.8-1.44 2.62-2.7 3.42-17.65 10.35-35.47 20.41-53.11 30.78.09-.64.27-1.91.36-2.55 13.75-7.59 27.02-16.04 39.86-25.09 4.01-2.85 9.2-5.28 10.33-10.58.85-4.96.34-10.06.41-15.08.22-2.31-1.86-4.69-4.24-3.55-25.95 11.3-50.58 25.51-73.68 41.86-3.2 2.4-7.31 4.17-8.97 8.07-1.75 3.63-1.12 7.76-1.24 11.65.09 3.21-.61 6.89 1.83 9.48.19.32.58.95.77 1.27-1.76 2.04-3.76 3.85-5.9 5.48-.32-7.54.17-15.16-1.37-22.59-2.3-9.85-7.85-19.14-16.2-25-6.06-4.28-13.44-6.12-19.58-10.27-8.65-3.48-16.71-8.23-25.34-11.73-8.95-4.63-18.16-8.67-27.4-12.66-7.15-3.66-14.33-7.47-21.74-10.51-4.65 2.73-9.52 5.22-13.81 8.52l-.45-.36c-3.94-18.16-7.36-36.45-11.27-54.62-.72-4.37-1.34-8.76-2.56-13.02 17.29-10.06 34.37-20.5 51.82-30.26-1.26 3.09-5.03 4.39-5.68 7.77-13.51 7.92-27.19 15.54-40.72 23.42 3.81 17.72 7.95 35.36 11.84 53.07.41 1.27.24 2.89 1.38 3.81 27.75-16.22 55.64-32.21 83.5-48.26.07-.04.23-.13.31-.18 1.6-.93 3.2-1.86 4.81-2.78.07-.04.22-.13.29-.17 2.23-1.3 4.46-2.58 6.7-3.85.06-.03.17-.1.23-.14 2.21-1.32 4.45-2.59 6.69-3.87l.28-.16c3.9-2.28 7.82-4.53 11.74-6.78l.28-.16c2.24-1.32 4.5-2.61 6.77-3.88.06-.04.19-.11.25-.15 4.9-2.94 9.9-5.71 14.81-8.63l.4-.31c-3.9-18.91-7.99-37.8-12.1-56.67-14.87 8.07-29.49 16.65-44.13 25.15-3.16 1.97-6.44 3.74-9.65 5.6-.11-.36-.33-1.1-.44-1.47 2.02-2.54 4.97-4.3 6.47-7.27 2.88-1.96 5.95-3.61 8.91-5.44 14-8.25 28.1-16.35 41.96-24.82z"/><path fill="#e33400" d="M442.41 240.41c.16.11.47.31.63.42-.16-.11-.47-.31-.63-.42zM443.04 240.83c.21.13.64.41.85.55-.21-.14-.64-.42-.85-.55zM445.35 242.29c.18.11.53.33.7.44-.17-.11-.52-.33-.7-.44zM446.05 242.73c.21.13.62.39.83.52-.21-.13-.62-.39-.83-.52zM448.39 244.17c.09.06.26.16.34.21-.08-.05-.25-.15-.34-.21zM451.45 246.11c.1.07.3.2.41.27-.11-.07-.31-.2-.41-.27zM453.37 247.36c.17.12.51.35.68.46-.17-.11-.51-.34-.68-.46zM454.05 247.82c.21.13.61.39.81.52-.2-.13-.6-.39-.81-.52zM277.4 315.36c.08.04.24.13.32.18-.08-.05-.24-.14-.32-.18zM279.26 316.43c.09.05.26.15.35.2-.09-.05-.26-.15-.35-.2zM282.4 318.39c.07.05.2.13.27.18-.07-.05-.2-.13-.27-.18zM285.43 320.33c.08.05.25.15.33.2-.08-.05-.25-.15-.33-.2zM287.27 321.47c.09.06.27.18.36.23-.09-.05-.27-.17-.36-.23z"/><path fill="#822c02" d="M244.83 151.84c11.56 5.77 22.85 12.26 33.76 19.19-5.99 3.62-11.99 7.24-18.22 10.42-5.05-3.46-10.54-6.21-15.69-9.51.03-6.7-.31-13.41.15-20.1z"/><path fill="#e46e30" d="M343.63 169.43c6.52-3.81 13.01-7.69 19.56-11.47-.39 1.22-.96 2.41-1.93 3.28-3.93 3.99-8.01 7.84-11.86 11.91.12.31.37.92.49 1.23-2.96 1.83-6.03 3.48-8.91 5.44-13.19 7.06-25.66 15.45-38.92 22.39 3.6-5.55 9.31-9.36 13.56-14.39-.14-.32-.41-.96-.55-1.28 5.54-3.61 11.58-6.41 16.99-10.24 3.69-2.32 7.51-4.43 11.25-6.68.08-.05.24-.14.32-.19z"/><path fill="#59718b" d="M344.6 182.96c14.64-8.5 29.26-17.08 44.13-25.15 4.11 18.87 8.2 37.76 12.1 56.67l-.4.31c-2.8-2.46-6.25-3.93-9.43-5.81-10.68-5.53-21-11.72-31.58-17.43-4.89-2.95-10.14-5.29-14.82-8.59z"/><path fill="#872e02" d="M0 179.45c1.53-4.27 4.67-7.86 8.88-9.63 3.72-.43 7.7-.58 11.05 1.37 9.16 5.16 18.19 10.55 27.48 15.47 57.22 31.8 114.56 63.39 171.8 95.15 9.91 4.92 19.07 11.31 29.21 15.75-.7-6.52-1.89-13-3.17-19.43-1.6-8.76-3.01-17.56-4.45-26.36-.38.04-1.15.12-1.53.16l1.32-1.76c-.57-6.14-2.29-12.12-2.68-18.28 2.37 1.44 4.78 2.8 7.22 4.1 1.22 4.26 1.84 8.65 2.56 13.02 3.91 18.17 7.33 36.46 11.27 54.62l.45.36c5.9 3.94 11.93 7.68 17.99 11.37.08.04.24.13.32.18l1.54.89c.09.05.26.15.35.2.69.44 2.09 1.32 2.79 1.76.07.05.2.13.27.18l2.76 1.76c.08.05.25.15.33.2l1.51.94c.09.06.27.18.36.23 15.38 10.22 31.12 19.91 46.76 29.73.09.05.26.16.35.21l.64.38c.38.24 1.14.7 1.52.94.26.16.79.49 1.05.65l1.21.71c.12.08.36.22.48.3.68.45 2.04 1.35 2.73 1.81.06.04.2.14.26.19 8.81 6.21 14.83 16.54 14.78 27.45-.05 8.74.17 17.48-.12 26.21-4.02.21-7.56-1.75-10.97-3.58-2.79-1.63-6.25 1.32-5.44 4.36.29 4.84 4.47 8.03 8.59 9.79-6.82 2.15-12.32-3.38-18.03-6.06-3.54-1.97-6.97-4.11-10.57-5.96 2.29-18.15-3.13-36.6-12.84-51.87-6.18-9.61-14.39-18.61-25.29-22.78-5.96-2.41-13.31-2.06-18.42 2.11-6.35 5.21-8.92 13.72-9.27 21.66-.45 4.25.28 8.5.15 12.76-46.54-26.54-92.84-53.48-139.34-80.09-3.02-1.66-5.94-3.5-9.05-4.98 3.34-16.63-1.37-33.76-8.93-48.58-5.92-10.82-14.01-21.03-25.1-26.86-5.85-3.19-13.47-4.49-19.48-1-5.28 2.76-8.61 8.23-10.15 13.84-2.46 8.16-1.79 16.84-.87 25.19-8.93-5.49-18.73-9.81-26.43-17.07-7.02-6.87-12.11-15.7-14.47-25.24-.37-1.81-.55-3.68-1.38-5.36v-21.11z"/><path fill="#2e373d" d="M152.14 225.72c30.59-18.24 61.57-35.86 92.16-54.11l.38.33c5.15 3.3 10.64 6.05 15.69 9.51-24.6 14.67-49.46 28.92-74.26 43.23 5.38-.48 9.76 3.81 12.11 8.24 3.46 6.21 2.2 13.52 2.41 20.31-15.25-8.35-30.27-17.1-45.59-25.33-1.1-.54-2.07-1.29-2.9-2.18zM113.36 191.33c1.23-2.22 3.24-3.77 5.53-4.78 5.36.1 9.48 4.2 12.2 8.44 3.2 6.2 2.31 13.43 2 20.14-6.79-3.54-13.36-7.48-20.04-11.21.05-4.2-.27-8.42.31-12.59zM53.3 209.2c6.01-3.49 13.63-2.19 19.48 1 11.09 5.83 19.18 16.04 25.1 26.86 7.56 14.82 12.27 31.95 8.93 48.58-1.1 5.1-4.04 9.38-6.53 13.84-3.96 2.61-8.41 5.02-13.32 4.51-9.88-.65-18.18-7.14-24.68-14.14-10.37-11.65-17.18-26.32-20-41.62-.92-8.35-1.59-17.03.87-25.19 1.54-5.61 4.87-11.08 10.15-13.84m5.46 31.69c-1.31 6.95.12 14.23 3.02 20.61 1.7 4.29 4.42 8.1 7.41 11.59l.22-.3c1.78 2.77 4.91 4.49 7.87 5.78 4.14 1.79 9.35.17 11.45-3.88 3.47-6.44 2.42-14.23.38-20.95-1.5-4.59-3.71-8.98-6.65-12.81-3.53-4.55-8.4-9.04-14.48-9.22-5.01-.05-8.41 4.66-9.22 9.18zM218.75 263.81c6.9-3.86 13.66-7.95 20.52-11.88.38-.04 1.15-.12 1.53-.16 1.44 8.8 2.85 17.6 4.45 26.36-9-4.45-17.68-9.53-26.5-14.32zM264.32 336.29c5.11-4.17 12.46-4.52 18.42-2.11 10.9 4.17 19.11 13.17 25.29 22.78 9.71 15.27 15.13 33.72 12.84 51.87-.8 3.09-1.52 6.25-2.87 9.17-1.05 2.32-3.04 4.16-3.65 6.69-4.94 3.63-11.24 6.09-17.38 4.37-10.81-2.52-19.31-10.69-25.74-19.37-8.48-11.41-13.68-25.01-16.03-38.98.13-4.26-.6-8.51-.15-12.76.35-7.94 2.92-16.45 9.27-21.66m10.9 23.96c-4.86 6.29-3.76 15.06-1.65 22.22 2.14 6.32 5.29 12.88 10.62 17.05l-.27.3c3.2 2.52 6.83 5.13 11.1 4.99 3.54-.02 6.6-2.62 7.89-5.8 2.59-6.06 1.64-12.91.02-19.09l-.19.27c-2.11-8.16-7-15.97-14.11-20.66-3.97-2.72-10.12-3.4-13.41.72z"/><path fill="#cecece" d="M75.84 182.76c3.9-2.99 8.47-5.03 12.73-7.47 5.09.39 10.48-.79 15.19 1.96 5.95 2.02 9.07 8.14 9.6 14.08-.58 4.17-.26 8.39-.31 12.59-12.42-7.03-24.84-14.05-37.21-21.16zM58.76 240.89c.81-4.52 4.21-9.23 9.22-9.18 6.08.18 10.95 4.67 14.48 9.22-1.57 1.81-3.27 3.57-5.49 4.58-2.32-1.69-5.78-4.12-8.54-1.99-3.39 3.18-2.76 8.29-1.8 12.38-.98 2.36-2.91 4.04-4.85 5.6-2.9-6.38-4.33-13.66-3.02-20.61zM84.41 257.37c1.02-1.81 2.78-2.97 4.7-3.63 2.04 6.72 3.09 14.51-.38 20.95-2.1 4.05-7.31 5.67-11.45 3.88-2.96-1.29-6.09-3.01-7.87-5.78 1.42-2.16 3.13-4.16 5.53-5.27 1.32.45 2.68.73 4.08.82 2.43-.52 3.43-3.06 4.28-5.1.77-1.87.61-3.94 1.11-5.87zM502.58 328.55c2.05-.82 1.77-3.35 2.12-5.15 2.59 1.6 6.72 2.22 7.3 5.76v.69c-.25 4.78-3.84 8.42-7.97 10.35-45.89 26.36-91.73 52.8-137.63 79.14-5.07 3.08-11.39 3.55-16.93 1.51-4.12-1.76-8.3-4.95-8.59-9.79-.81-3.04 2.65-5.99 5.44-4.36 3.41 1.83 6.95 3.79 10.97 3.58 5.21-.4 9.45-3.69 13.89-6.09 43.8-25.22 87.6-50.43 131.4-75.64zM275.22 360.25c3.29-4.12 9.44-3.44 13.41-.72 7.11 4.69 12 12.5 14.11 20.66-1.51 2.3-3.45 4.26-5.65 5.9-.39-6.36-3.22-12.8-8.52-16.54-1.92-1.01-4.66-2.17-6.55-.47-2.33 1.85-2.71 5.04-2.57 7.82.44 6.73 4.02 13.45 10.04 16.75-1.67 2.05-3.58 3.87-5.3 5.87-5.33-4.17-8.48-10.73-10.62-17.05-2.11-7.16-3.21-15.93 1.65-22.22z"/><path fill="#d73100" d="M302.06 202.21c13.26-6.94 25.73-15.33 38.92-22.39-1.5 2.97-4.45 4.73-6.47 7.27.11.37.33 1.11.44 1.47-14.56 8.32-29.07 16.73-43.68 24.94.65-3.38 4.42-4.68 5.68-7.77 1.68-1.21 3.41-2.34 5.11-3.52zM334.39 351.43c.09.05.26.16.35.21-.09-.05-.26-.16-.35-.21zM335.38 352.02c.38.24 1.14.7 1.52.94-.38-.24-1.14-.7-1.52-.94zM336.9 352.96c.26.16.79.49 1.05.65-.26-.16-.79-.49-1.05-.65zM339.16 354.32c.12.08.36.22.48.3-.12-.08-.36-.22-.48-.3zM342.37 356.43c.06.04.2.14.26.19-.06-.05-.2-.15-.26-.19zM392.9 380.82c11.16-4.87 22.14-10.17 32.78-16.1-.09.64-.27 1.91-.36 2.55-5.75 3.32-11.45 6.72-17.25 9.95-7.78 4.2-15.11 9.33-23.14 13.01l-.08-2c2.14-1.63 4.14-3.44 5.9-5.48-.19-.32-.58-.95-.77-1.27.73-.16 2.19-.5 2.92-.66z"/><path fill="#304e75" d="M334.95 188.56c3.21-1.86 6.49-3.63 9.65-5.6 4.68 3.3 9.93 5.64 14.82 8.59 10.58 5.71 20.9 11.9 31.58 17.43 3.18 1.88 6.63 3.35 9.43 5.81-4.91 2.92-9.91 5.69-14.81 8.63-.06.04-.19.11-.25.15-2.27 1.27-4.53 2.56-6.77 3.88l-.28.16c-3.92 2.25-7.84 4.5-11.74 6.78l-.28.16c-2.24 1.28-4.48 2.55-6.69 3.87-.06.04-.17.11-.23.14-2.24 1.27-4.47 2.55-6.7 3.85-.07.04-.22.13-.29.17-1.61.92-3.21 1.85-4.81 2.78-.08.05-.24.14-.31.18-27.86 16.05-55.75 32.04-83.5 48.26-1.14-.92-.97-2.54-1.38-3.81-3.89-17.71-8.03-35.35-11.84-53.07 13.53-7.88 27.21-15.5 40.72-23.42 14.61-8.21 29.12-16.62 43.68-24.94z"/><path fill="#e14d00" d="M385.37 223.57c.06-.04.19-.11.25-.15-.06.04-.19.11-.25.15zM378.32 227.61l.28-.16-.28.16zM366.3 234.55l.28-.16-.28.16zM359.38 238.56c.06-.03.17-.1.23-.14-.06.04-.17.11-.23.14zM352.39 242.58c.07-.04.22-.13.29-.17-.07.04-.22.13-.29.17zM347.27 245.54c.07-.04.23-.13.31-.18-.08.05-.24.14-.31.18z"/><path fill="#c3c3c3" d="M82.46 240.93c2.94 3.83 5.15 8.22 6.65 12.81-1.92.66-3.68 1.82-4.7 3.63-.5 1.93-.34 4-1.11 5.87.61-6.51-1.75-13.07-6.33-17.73 2.22-1.01 3.92-2.77 5.49-4.58zM66.63 255.9c1.39 4.66 4.21 8.92 8.31 11.62-2.4 1.11-4.11 3.11-5.53 5.27l-.22.3c-2.99-3.49-5.71-7.3-7.41-11.59 1.94-1.56 3.87-3.24 4.85-5.6zM302.74 380.19l.19-.27c1.62 6.18 2.57 13.03-.02 19.09-1.29 3.18-4.35 5.78-7.89 5.8-4.27.14-7.9-2.47-11.1-4.99l.27-.3c1.72-2 3.63-3.82 5.3-5.87 1.73.12 3.97.69 5.23-.89 1.78-1.76 2.17-4.3 2.37-6.67 2.2-1.64 4.14-3.6 5.65-5.9z"/><path fill="#5d707a" d="M68.43 243.52c2.76-2.13 6.22.3 8.54 1.99 4.58 4.66 6.94 11.22 6.33 17.73-.85 2.04-1.85 4.58-4.28 5.1-1.4-.09-2.76-.37-4.08-.82-4.1-2.7-6.92-6.96-8.31-11.62-.96-4.09-1.59-9.2 1.8-12.38z"/><path fill="#23292e" d="M100.28 299.48c2.49-4.46 5.43-8.74 6.53-13.84 3.11 1.48 6.03 3.32 9.05 4.98-5.29 2.78-10.37 5.94-15.58 8.86zM320.87 408.83c3.6 1.85 7.03 3.99 10.57 5.96-5.63 3.41-11.37 6.63-17.09 9.9.61-2.53 2.6-4.37 3.65-6.69 1.35-2.92 2.07-6.08 2.87-9.17z"/><path fill="#fff" d="M494.35 286.32c5.02-.15 5.01 6.15 4.88 9.74-.62 8.8 2.05 18.88-3.84 26.41-2.21 2.74-6.12 6.02-9.73 3.91-2.01-1.88-2.05-4.81-2.11-7.36.05-5.96-.06-11.93.12-17.9.44-6.28 4.13-13.27 10.68-14.8zM370.26 357.46c1.96-1.01 4.7-.48 5.59 1.69 1.64 3.74.78 7.97 1 11.94-.26 6.55 1.03 13.6-2.27 19.63-1.93 3.51-5.31 7.11-9.6 7.03-3.04-.53-3.68-4.08-3.77-6.66-.02-6.39-.11-12.78.05-19.16.38-5.83 3.4-12.09 9-14.47z"/><path fill="#22282d" d="M398.36 352.28c23.1-16.35 47.73-30.56 73.68-41.86 2.38-1.14 4.46 1.24 4.24 3.55-.07 5.02.44 10.12-.41 15.08-1.13 5.3-6.32 7.73-10.33 10.58-12.84 9.05-26.11 17.5-39.86 25.09-10.64 5.93-21.62 11.23-32.78 16.1-.73.16-2.19.5-2.92.66-2.44-2.59-1.74-6.27-1.83-9.48.12-3.89-.51-8.02 1.24-11.65 1.66-3.9 5.77-5.67 8.97-8.07z"/><path fill="#627681" d="M282.02 369.08c1.89-1.7 4.63-.54 6.55.47 5.3 3.74 8.13 10.18 8.52 16.54-.2 2.37-.59 4.91-2.37 6.67-1.26 1.58-3.5 1.01-5.23.89-6.02-3.3-9.6-10.02-10.04-16.75-.14-2.78.24-5.97 2.57-7.82z"/></svg>