<svg xmlns="http://www.w3.org/2000/svg" viewBox="0 0 512 512"><path fill="#a9adbf" d="M0 0h.25C.18.08.06.23 0 .31V0zM238.1 23.77c30.28-.31 60.57.04 90.85-.08 2.78.77 4.83 2.89 6.41 5.2-2.18 3.07-5.41 5.6-9.28 5.93-10.71.55-21.42-.35-32.13-.14-17.32.55-34.65.19-51.97.29-2.33-.19-5.6.34-6.78-2.25-2.1-3.31 1.02-6.45 2.9-8.95zM234.37 56.58c-2.41-4.33 2.4-9.72 6.73-10.24 20.97-.37 41.94.26 62.91-.09 8.21-.22 16.45.42 24.64-.4 2.72 1.21 5.04 3.15 6.68 5.64-2.23 3.03-5.35 5.91-9.36 5.83-12.66.14-25.32.08-37.98.04-13.66-.69-27.33.32-41 .05-4.18-.26-8.65.81-12.62-.83zM231.36 100.04c5.24.27 10.49-.04 15.74.07 19.61.27 39.23.04 58.84.19 5.47.19 10.93-1.19 16.36-.12 7.45.42 14.93-.19 22.37.29 2.55.17 4.51 1.96 5.86 4 3.31 4.92 6.64 9.83 9.91 14.78 15.35 23.57 31.64 46.51 47 70.07.06.08.17.24.22.32l1.72 2.6c.07.11.23.35.31.46.43.67 1.31 2.01 1.75 2.68.04.06.11.17.15.22.49.69 1.46 2.06 1.95 2.75.04.05.11.15.15.2 4.85 6.97 9.47 14.1 14.29 21.1 4.69 7.14 9.58 14.15 14.24 21.31 1.5 2.22 1.55 5.19.16 7.47-4.17 7.71-8.54 15.32-12.68 23.04-1.83-1.23-2.87-3.22-4.1-4.98-10.53-14.9-20.59-30.13-30.77-45.27-4.56-7.7-10.04-14.76-14.94-22.23-10.5-14.89-19.65-30.71-30.45-45.37-4.53-5.83-8.5-12.17-13.94-17.22-8.19-7.69-18.64-12.8-29.65-14.88-6.22-.55-12.49-.21-18.73-.24-12.44 1.81-24.09 8.06-32.8 17.09-5.1 5.43-9.15 11.75-12.66 18.3-5.57 8.04-9.76 16.97-14.88 25.3-3.72 7.97-8.8 15.19-12.99 22.91-6.22 11.06-12.75 21.94-18.69 33.16-7.68 14.49-17.12 28-24.22 42.8-4.23 5.59-8.43 11.27-11.5 17.6-5.37-8.48-9.37-17.72-14.34-26.42-4.53-6.69-7.93-14.06-12.01-21.02-1.59-2.5-2.02-5.79-.33-8.36 22.3-33.02 44.68-66 67.04-98.99 9.48-12.96 17.88-26.66 27.25-39.69 1.23-1.54 2.85-2.69 4.37-3.92z"/><path fill="#a9adbf" d="M272.83 166.79c6.1-2.29 12.96-3.27 19.24-1.06 8.08 2.4 14.52 9.13 17 17.13 2.22 6.23.65 12.89-1.1 19.02-8.08 4.01-18.17 3.8-25.79-1.16-11.22-6.69-15.66-22.46-9.35-33.93z"/><path fill="#a9adbf" d="M353.09 187.6c7.26 11.09 15.51 21.47 22.38 32.82 3.86 6.4 8.65 12.16 12.69 18.45 6.97 10.39 13.97 20.76 20.92 31.16 3.54 6.07 7.68 11.73 11.73 17.45-18.08 32.6-36.07 65.24-54.16 97.82-20.56-.02-41.1.43-61.65.34-11.14.07-22.37.91-33.46-.17 6.43-5.55 12.35-11.93 16.17-19.59 7.9-13.45 11.21-29.49 9.34-44.96-2.33-21.38-15.13-41.26-33.34-52.61-18.53-12.32-42.72-13.9-63.57-7.17 3.07-5.58 6.5-10.98 9.23-16.75 9.88-17.64 20.09-35.09 30.32-52.52 4 16.32 15.28 30.68 30.33 38.2 11.24 6 24.55 7.36 36.99 5.15 16.31-3.05 31.01-13.55 39.21-27.97 3.3-6.15 5.31-12.88 6.87-19.65z"/><path fill="#a9adbf" d="M194 314c8.18-2.86 17.35-4.67 25.79-1.77 11.66 3.57 21.05 13.71 23.53 25.69 2.03 7.89-.16 16.09-3.23 23.4-7.64 2.73-16.08 4.22-24.02 1.81-11.78-2.98-21.45-12.72-24.55-24.45-2.21-8.14-1.3-17.13 2.48-24.68zM446.21 359.97c5.65-2.18 12.64-.32 15.76 5.05 2.48 3.43 2.2 7.88 1.13 11.76-5.62 2.53-12.82.64-15.99-4.74-2.61-3.49-2.38-8.18-.9-12.07zM265.93 402.11c12.03-1.09 24.12.21 36.16-.71 18.66-.28 37.32-.43 55.98-.57-5.46 9.92-10.97 19.8-16.42 29.72-1.26 2.24-2.99 4.72-5.75 5.07-4.5.69-9.09.12-13.62.34-27.72-.06-55.44-.19-83.16-.15-5.7-.06-7.11-6.29-9.64-10.21-4.18-7.99-9.14-15.58-12.81-23.81 6.06.57 12.14.21 18.21.07 10.34.42 20.7.11 31.05.25z"/><path fill="#525360" d="M161.22 0h188.51c3.54.43 7.19 1.87 9.23 4.96 3.08 3.97 2.99 10.01-.13 13.93-2.22 3.18-6.14 4.65-9.91 4.73-6.66.12-13.32-.03-19.97.07-30.28.12-60.57-.23-90.85.08-10.38-.51-20.75.76-31.12.29-8.56-.17-17.12.17-25.68-.13-6.67-.35-13.39.28-20.04-.32-5.45-.53-10.2-5.13-10.56-10.65-.85-6.3 4.3-12.3 10.52-12.96zM32.09 79.96c1.75-2.71 4.59-4.93 7.93-4.93 4.19.01 7.25 3.27 10.6 5.33 3.35 2.48 7.96 4.43 8.96 8.92 1.14 4.23-1.76 7.88-4.01 11.11-.03.06-.11.16-.14.22-.67 1-1.33 2.01-1.99 3.01-2.22 3.28-4.58 6.46-6.63 9.85-3.3 5.19-6.94 10.14-10.38 15.23-2.8 3.39-4.45 8.14-8.77 9.92-2.96.91-6.37.55-8.87-1.38-3.72-2.63-7.67-4.95-11.15-7.89-3.55-2.87-3.85-8.39-1.27-11.99 8.38-12.6 17.24-24.87 25.72-37.4zM461.88 79.83c3.17-1.94 6.13-5.17 10.16-4.81 3.45-.23 6.27 2.25 8.08 4.94 7.6 11.06 14.95 22.29 22.6 33.32 2.33 3.42 5.61 7.25 4.22 11.71-1.13 4.44-5.69 6.4-9.06 8.88-3.61 2.29-7.23 5.96-11.91 5.03-5.37-.94-7.28-6.68-10.39-10.41-2.02-2.9-3.95-5.85-5.87-8.81-3.86-5.33-7.76-10.63-11.34-16.16-2.55-4.44-7.44-8.61-6.1-14.27 1.12-4.78 6.06-6.74 9.61-9.42zM97.52 98.42c4.25-5.85 13.15-7.06 18.94-2.81 11.71 8.02 23.45 16.01 35.04 24.21-22.75 33.2-44.91 66.8-67.71 99.97-11.28-7.57-22.35-15.43-33.59-23.05-2.33-1.6-4.76-3.28-6.22-5.77-2.87-4.63-2.65-10.94.51-15.37 6.33-9.4 12.86-18.66 19.11-28.1 4.04-5.18 7.51-10.77 11.33-16.11 2.04-3.08 4.13-6.12 6.21-9.16 5.49-7.92 10.78-15.98 16.38-23.81zM395.48 95.47c5.86-4.24 14.94-3.03 19.19 2.94 5.49 7.69 10.61 15.64 16.09 23.34l.85-.24c-.07.26-.21.8-.28 1.07 3.73 5.45 7.59 10.81 11.05 16.44 1.84 2.86 3.84 5.61 5.76 8.42 6.49 9.64 13.15 19.17 19.61 28.83 4.18 6.16 2.04 15.27-4.29 19.1-11.83 8.09-23.61 16.25-35.48 24.28-4.82-7-9.44-14.13-14.29-21.1-.04-.05-.11-.15-.15-.2-.49-.69-1.46-2.06-1.95-2.75-.04-.05-.11-.16-.15-.22-.44-.67-1.32-2.01-1.75-2.68-.08-.11-.24-.35-.31-.46l-1.72-2.6c-.05-.08-.16-.24-.22-.32-15.36-23.56-31.65-46.5-47-70.07 11.65-7.98 23.33-15.91 35.04-23.78zM187.4 435.99c17.24-.09 34.48.22 51.72-.18 27.72-.04 55.44.09 83.16.15.03 14 .14 28.01-.03 42.01.14 6.45-5.36 12.24-11.82 12.33-12.01.27-24.03.05-36.05.11-12.95-.19-25.89.6-38.85.25-11.19-.09-22.38-.01-33.58-.02-3.64-.09-7.56-.7-10.28-3.36-3.3-2.76-4.24-7.19-4.27-11.3.01-13.33.02-26.66 0-39.99z"/><path fill="#828aa0" d="M181.3 23.93c8.56.3 17.12-.04 25.68.13 10.37.47 20.74-.8 31.12-.29-1.88 2.5-5 5.64-2.9 8.95 1.18 2.59 4.45 2.06 6.78 2.25 17.32-.1 34.65.26 51.97-.29 10.71-.21 21.42.69 32.13.14 3.87-.33 7.1-2.86 9.28-5.93 3.73 6.24-.15 14.57-6.71 16.96-8.19.82-16.43.18-24.64.4-20.97.35-41.94-.28-62.91.09-4.33.52-9.14 5.91-6.73 10.24 3.97 1.64 8.44.57 12.62.83 13.67.27 27.34-.74 41-.05 12.66.04 25.32.1 37.98-.04 4.01.08 7.13-2.8 9.36-5.83 1.44 2.66 2.06 5.88.93 8.77-1.47 6.05-8.05 9.43-13.96 8.75-25.08-.46-50.16.43-75.23-.03-19.21-.17-38.42-.12-57.63 0-5.92.73-12.41-2.84-13.74-8.9-2.11-5.88 2.03-11.87 7.18-14.49-5.03-1.95-8.23-7.38-7.64-12.68.54-3.74 2.91-6.97 6.06-8.98zM162.2 104.11c1.52-2.22 3.88-4.19 6.72-4.08 6.84-.05 13.68-.05 20.52.02 9.19.22 18.38.01 27.57.13 4.79.09 9.57-.79 14.35-.14-1.52 1.23-3.14 2.38-4.37 3.92-9.37 13.03-17.77 26.73-27.25 39.69-22.36 32.99-44.74 65.97-67.04 98.99-1.69 2.57-1.26 5.86.33 8.36 4.08 6.96 7.48 14.33 12.01 21.02 4.97 8.7 8.97 17.94 14.34 26.42-7.25 15.38-8.79 33.24-4.54 49.68 7.18 28.21 32.86 50.56 61.83 53.67 3.67 8.23 8.63 15.82 12.81 23.81 2.53 3.92 3.94 10.15 9.64 10.21-17.24.4-34.48.09-51.72.18-4.45-.14-8.92.25-13.35-.22-3.87-.55-5.78-4.33-7.41-7.44-32.69-59.27-65.43-118.52-98.13-177.78-1.57-2.48-1.76-5.66.02-8.09 5.01-7.61 10.27-15.05 15.26-22.67 22.8-33.17 44.96-66.77 67.71-99.97 3.64-5.19 7.11-10.49 10.7-15.71zM285.99 153.84c4.77-1.58 10.07-3.36 15.02-1.43 9.09 1.33 16.56 8.3 20.12 16.53 2.76 8.17 1.96 17.9-3.24 24.97-2.65 3.36-6.05 6.14-9.92 7.97 1.75-6.13 3.32-12.79 1.1-19.02-2.48-8-8.92-14.73-17-17.13-6.28-2.21-13.14-1.23-19.24 1.06 2.26-5.99 7.79-9.92 13.16-12.95zM446.21 359.97c2.69-5.56 9.47-8.6 15.36-6.55 4.91 2.05 9.11 7.03 8.56 12.6.2 4.66-3.23 8.54-7.03 10.76 1.07-3.88 1.35-8.33-1.13-11.76-3.12-5.37-10.11-7.23-15.76-5.05z"/><path fill="#b1b7ab" d="M189.44 68.98c19.21-.12 38.42-.17 57.63 0 .5 10.36.47 20.77.03 31.13-5.25-.11-10.5.2-15.74-.07-4.78-.65-9.56.23-14.35.14-9.19-.12-18.38.09-27.57-.13.01-10.36.01-20.71 0-31.07zM431.61 121.51c8.93-5.98 17.8-12.05 26.76-17.99 3.58 5.53 7.48 10.83 11.34 16.16-2.55.28-4.41 2.18-6.4 3.61-6.93 5.3-14.36 9.99-20.93 15.73-3.46-5.63-7.32-10.99-11.05-16.44.07-.27.21-.81.28-1.07zM36.43 128.7c3.44-5.09 7.08-10.04 10.38-15.23 6.4 3.67 12.14 8.37 18.39 12.28 3.24 1.87 5.95 4.86 9.73 5.64-3.82 5.34-7.29 10.93-11.33 16.11-9.09-6.22-18.14-12.49-27.17-18.8z"/><path fill="#d2d6ce" d="M247.07 68.98c25.07.46 50.15-.43 75.23.03.02 10.39.02 20.78 0 31.17-5.43-1.07-10.89.31-16.36.12-19.61-.15-39.23.08-58.84-.19.44-10.36.47-20.77-.03-31.13zM46.81 113.47c2.05-3.39 4.41-6.57 6.63-9.85 9.27 6.15 18.45 12.42 27.7 18.61-2.08 3.04-4.17 6.08-6.21 9.16-3.78-.78-6.49-3.77-9.73-5.64-6.25-3.91-11.99-8.61-18.39-12.28zM463.31 123.29c1.99-1.43 3.85-3.33 6.4-3.61 1.92 2.96 3.85 5.91 5.87 8.81-9.15 6.32-18.25 12.69-27.44 18.95-1.92-2.81-3.92-5.56-5.76-8.42 6.57-5.74 14-10.43 20.93-15.73zM235.53 490.66c12.96.35 25.9-.44 38.85-.25 1.4 10.85-7.72 21.29-18.62 21.59h-2.29c-10.5-.78-19.15-10.78-17.94-21.34z"/><path fill="#3c3f4f" d="M55.43 100.61c.03-.06.11-.16.14-.22-.03.06-.11.16-.14.22zM254.32 138.37c8.71-9.03 20.36-15.28 32.8-17.09 6.24.03 12.51-.31 18.73.24 11.01 2.08 21.46 7.19 29.65 14.88 5.44 5.05 9.41 11.39 13.94 17.22.84 6.19 4.65 11.83 4.25 18.24 1.6 5.11 1.45 10.77-.6 15.74-1.56 6.77-3.57 13.5-6.87 19.65-8.2 14.42-22.9 24.92-39.21 27.97-12.44 2.21-25.75.85-36.99-5.15-15.05-7.52-26.33-21.88-30.33-38.2-1.45-3.1-1.16-6.6-2.11-9.84-.81-4.06.76-7.99.97-12.01.27-4.62 2.7-8.76 3.11-13.35 3.51-6.55 7.56-12.87 12.66-18.3m31.67 15.47c-5.37 3.03-10.9 6.96-13.16 12.95-6.31 11.47-1.87 27.24 9.35 33.93 7.62 4.96 17.71 5.17 25.79 1.16 3.87-1.83 7.27-4.61 9.92-7.97 5.2-7.07 6-16.8 3.24-24.97-3.56-8.23-11.03-15.2-20.12-16.53-4.95-1.93-10.25-.15-15.02 1.43zM200.14 261.14c20.85-6.73 45.04-5.15 63.57 7.17 18.21 11.35 31.01 31.23 33.34 52.61 1.87 15.47-1.44 31.51-9.34 44.96-3.82 7.66-9.74 14.04-16.17 19.59-10.18 8.97-23.32 14.4-36.66 16.39-6.07.14-12.15.5-18.21-.07-28.97-3.11-54.65-25.46-61.83-53.67-4.25-16.44-2.71-34.3 4.54-49.68 3.07-6.33 7.27-12.01 11.5-17.6 8.26-8.42 17.83-16.14 29.26-19.7m17.78 33.57c-10.29 2.42-19.98 9.27-23.92 19.29-3.78 7.55-4.69 16.54-2.48 24.68 3.1 11.73 12.77 21.47 24.55 24.45 7.94 2.41 16.38.92 24.02-1.81 9.4-3.87 16.42-12.55 19.06-22.31 2.08-4.74 1.05-10.03 1.25-15.05-1.67-7.62-5.3-14.94-10.93-20.4-4.36-3.34-8.91-6.64-14.31-8.07-3.19-1.57-6.94-.35-10.15-1.93-2.24 1.02-4.69 1.04-7.09 1.15z"/><path fill="#82838e" d="M349.44 153.62c10.8 14.66 19.95 30.48 30.45 45.37 4.9 7.47 10.38 14.53 14.94 22.23 10.18 15.14 20.24 30.37 30.77 45.27 1.23 1.76 2.27 3.75 4.1 4.98-.1.21-.29.63-.38.84 13.71 20.98 28.21 41.45 41.9 62.44-3.89-1.82-8.11-2.43-12.23-3.45-2.59.01-5.02 1.23-7.58 1.6-10.32-15.06-20.22-30.4-30.6-45.42-4.05-5.72-8.19-11.38-11.73-17.45-6.95-10.4-13.95-20.77-20.92-31.16-4.04-6.29-8.83-12.05-12.69-18.45-6.87-11.35-15.12-21.73-22.38-32.82 2.05-4.97 2.2-10.63.6-15.74.4-6.41-3.41-12.05-4.25-18.24zM226.78 181.97c5.12-8.33 9.31-17.26 14.88-25.3-.41 4.59-2.84 8.73-3.11 13.35-.21 4.02-1.78 7.95-.97 12.01.95 3.24.66 6.74 2.11 9.84-10.23 17.43-20.44 34.88-30.32 52.52-2.73 5.77-6.16 11.17-9.23 16.75-11.43 3.56-21 11.28-29.26 19.7 7.1-14.8 16.54-28.31 24.22-42.8 5.94-11.22 12.47-22.1 18.69-33.16 4.19-7.72 9.27-14.94 12.99-22.91zM407.44 189.32c.06.08.17.24.22.32-.05-.08-.16-.24-.22-.32zM409.38 192.24c.07.11.23.35.31.46-.08-.11-.24-.35-.31-.46zM411.44 195.38c.04.06.11.17.15.22-.04-.05-.11-.16-.15-.22zM413.54 198.35c.04.05.11.15.15.2-.04-.05-.11-.15-.15-.2zM430.35 384.6c3.09 5.64 8.4 9.67 14.38 11.88 5.3 3.31 11.64 1.94 17.53 1.97-1.31.69-2.63 1.49-4.16 1.35-7.69.18-15.39-.31-23.05.43-25.66.14-51.32.32-76.98.6-18.66.14-37.32.29-55.98.57-12.04.92-24.13-.38-36.16.71-10.35-.14-20.71.17-31.05-.25 13.34-1.99 26.48-7.42 36.66-16.39 11.09 1.08 22.32.24 33.46.17 20.55.09 41.09-.36 61.65-.34 21.23-.14 42.47-.36 63.7-.7z"/><path fill="#7b8398" d="M217.92 294.71c2.4-.11 4.85-.13 7.09-1.15 3.21 1.58 6.96.36 10.15 1.93 5.4 1.43 9.95 4.73 14.31 8.07 5.63 5.46 9.26 12.78 10.93 20.4-.2 5.02.83 10.31-1.25 15.05-2.64 9.76-9.66 18.44-19.06 22.31 3.07-7.31 5.26-15.51 3.23-23.4-2.48-11.98-11.87-22.12-23.53-25.69-8.44-2.9-17.61-1.09-25.79 1.77 3.94-10.02 13.63-16.87 23.92-19.29z"/><path fill="#5b5d6e" d="M451.41 332.9c2.56-.37 4.99-1.59 7.58-1.6 4.12 1.02 8.34 1.63 12.23 3.45 2.19 2.26 5.31 3.27 7.56 5.48 9.55 7.81 13.86 21.2 10.85 33.14-.02.08-.06.22-.07.29-.22.69-.64 2.06-.85 2.75-.02.07-.07.21-.1.27-3.92 11.48-14.59 19.64-26.35 21.77-5.89-.03-12.23 1.34-17.53-1.97-5.98-2.21-11.29-6.24-14.38-11.88-6.55-9.83-7.95-23.07-2.49-33.7 4.45-9.31 13.52-15.91 23.55-18m-5.2 27.07c-1.48 3.89-1.71 8.58.9 12.07 3.17 5.38 10.37 7.27 15.99 4.74 3.8-2.22 7.23-6.1 7.03-10.76.55-5.57-3.65-10.55-8.56-12.6-5.89-2.05-12.67.99-15.36 6.55z"/><path fill="#4a4d5e" d="M489.56 373.66c.01-.07.05-.21.07-.29-.02.08-.06.22-.07.29zM488.61 376.68c.03-.06.08-.2.1-.27-.02.07-.07.21-.1.27z"/></svg>