<svg xmlns="http://www.w3.org/2000/svg" viewBox="0 0 512 512"><path fill="#444a53" d="M60.36 23.29C70.7 13.55 84.8 8.03 99 8.08c69.69-.04 139.37-.02 209.06-.01 15.65-.22 31.23 6.42 41.88 17.89 10.11 10.69 15.69 25.39 15.5 40.07-.05 51.31.09 102.61-.07 153.92 4.14.18 8.31.12 12.42.75 16.47 2.63 29.63 18.06 29.58 34.76.16 53.51.02 107.03.07 160.55.08 3.66-.35 7.38.37 11.01.98 3.98 6.3 5.93 9.57 3.37 2.85-1.77 2.84-5.41 2.8-8.37-.06-72.7-.01-145.41-.03-218.11-12.43-5.53-21.28-18.33-21.4-32.02-.21-20.95-.02-41.91-.12-62.86-.26-4.64 1.55-9.23 5.1-12.26 27.64-27.72 55.2-55.53 82.82-83.27 3.18-3.28 7.72-5.38 12.35-4.85 6.93.61 12.39 6.89 13.1 13.64v2.35c-.55 6.04-5.51 9.89-9.42 13.91-10.74 10.98-21.68 21.77-32.29 32.85-.69 11.14-.09 22.41-.29 33.61.05 20.33-.01 40.65.01 60.98.1 6.48-.23 13.17-2.93 19.17-3.4 8-9.88 14.41-17.6 18.28-.05 73.87.04 147.74-.04 221.6.32 17.84-14.51 34.29-32.32 35.63-15.41 1.74-30.95-8.13-36.42-22.54-1.94-4.8-2.53-10.01-2.58-15.14 0-55.32.01-110.65-.01-165.97.23-2.96-1.22-6.11-4.15-7.13-2.77-.77-5.69-.44-8.52-.49-.01 75.07 0 150.15 0 225.22 8.87.03 17.73-.01 26.6-.01 4.57-.1 9.31 1.66 12.15 5.35 4.85 5.87 4.12 15.52-1.74 20.44-3.1 2.8-7.39 3.66-11.44 3.55-125.36-.05-250.72.04-376.07-.04-7.53.37-14.29-5.77-14.94-13.22v-2.43c.41-7.28 6.73-13.59 14.1-13.56 9.28-.16 18.57-.07 27.85-.07.11-136.22-.01-272.44.06-408.66-.18-15.97 6.6-31.85 18.35-42.68m13.77 29.68c-2.96 5.88-2.92 12.62-2.76 19.03-.05 134.21-.02 268.42-.02 402.63 88.26-.04 176.52.02 264.78-.03-.04-136.52.03-273.04-.05-409.56-.02-10.92-6.96-21.44-17.1-25.57-5.02-2.17-10.59-2.2-15.95-2.06-68.31-.05-136.62-.07-204.93.03-10.1.12-19.73 6.38-23.97 15.53m353.91 60.93c-.13 18.36-.11 36.74 0 55.1-.04 2.39.05 5.14 2.09 6.76 3.47 3.49 10.42.98 10.41-4.12.21-23.57.09-47.16.13-70.74-4.18 4.35-8.9 8.32-12.63 13z"/><path fill="#444a53" d="M121.5 59.68c2.48-.47 5.01-.63 7.54-.75 44.32-.16 88.65.01 132.98-.05 7.37.04 14.77-.49 22.1.42 13.04 1.64 24.63 11.18 28.86 23.6 2.58 7.07 2.14 14.74 2.21 22.14-.14 26.66-.09 53.32-.07 79.98.2 6.66.1 13.53-2.4 19.8-4.95 13.28-18.35 22.94-32.58 23.03-46.71.1-93.41.12-140.12.05-7.71-.06-15.66.53-23.08-2.02-14.13-4.65-24.13-19.03-24.06-33.85-.14-32.67-.13-65.35.04-98.02.08-16.26 12.62-31.28 28.58-34.33m6.64 28.59c-4.89.17-6.69 5.57-6.05 9.71.2 31.36-.13 62.73.08 94.1-.08 3.69 3.32 6.72 6.96 6.45 48.96.18 97.93-.03 146.89.09 2.63-.01 5.71.22 7.73-1.85 1.92-1.69 2.14-4.38 2.09-6.77-.07-31.67-.01-63.34-.05-95.01.17-3.68-3.06-6.97-6.76-6.78-50.29 0-100.6-.11-150.89.06z"/><path fill="#7ba3c4" d="M74.13 52.97C78.37 43.82 88 37.56 98.1 37.44c68.31-.1 136.62-.08 204.93-.03 5.36-.14 10.93-.11 15.95 2.06 10.14 4.13 17.08 14.65 17.1 25.57.08 136.52.01 273.04.05 409.56-88.26.05-176.52-.01-264.78.03 0-134.21-.03-268.42.02-402.63-.16-6.41-.2-13.15 2.76-19.03m47.37 6.71C105.54 62.73 93 77.75 92.92 94.01c-.17 32.67-.18 65.35-.04 98.02-.07 14.82 9.93 29.2 24.06 33.85 7.42 2.55 15.37 1.96 23.08 2.02 46.71.07 93.41.05 140.12-.05 14.23-.09 27.63-9.75 32.58-23.03 2.5-6.27 2.6-13.14 2.4-19.8-.02-26.66-.07-53.32.07-79.98-.07-7.4.37-15.07-2.21-22.14-4.23-12.42-15.82-21.96-28.86-23.6-7.33-.91-14.73-.38-22.1-.42-44.33.06-88.66-.11-132.98.05-2.53.12-5.06.28-7.54.75m82.78 234.65c-12.14 15.58-23.5 31.8-35.5 47.52-7.63 9.83-12.14 22.49-10.59 35 1.08 14.33 9.24 27.78 21.1 35.79 8.04 4.89 17.23 8.45 26.77 8.22 16.56-.15 32.62-9.71 40.79-24.09 7.08-12.04 8.72-27.32 3.77-40.45-1.71-4.91-4.42-9.38-7.09-13.81-11.78-15.89-23.54-31.81-35.5-47.57-.88-1.03-2.61-1.5-3.75-.61z"/><path fill="#fcfcfc" d="M128.14 88.27c50.29-.17 100.6-.06 150.89-.06 3.7-.19 6.93 3.1 6.76 6.78.04 31.67-.02 63.34.05 95.01.05 2.39-.17 5.08-2.09 6.77-2.02 2.07-5.1 1.84-7.73 1.85-48.96-.12-97.93.09-146.89-.09-3.64.27-7.04-2.76-6.96-6.45-.21-31.37.12-62.74-.08-94.1-.64-4.14 1.16-9.54 6.05-9.71zM428.04 113.9c3.73-4.68 8.45-8.65 12.63-13-.04 23.58.08 47.17-.13 70.74.01 5.1-6.94 7.61-10.41 4.12-2.04-1.62-2.13-4.37-2.09-6.76-.11-18.36-.13-36.74 0-55.1zM204.28 294.33c1.14-.89 2.87-.42 3.75.61 11.96 15.76 23.72 31.68 35.5 47.57 2.67 4.43 5.38 8.9 7.09 13.81 4.95 13.13 3.31 28.41-3.77 40.45-8.17 14.38-24.23 23.94-40.79 24.09-9.54.23-18.73-3.33-26.77-8.22-11.86-8.01-20.02-21.46-21.1-35.79-1.55-12.51 2.96-25.17 10.59-35 12-15.72 23.36-31.94 35.5-47.52z"/></svg>