<svg xmlns="http://www.w3.org/2000/svg" viewBox="0 0 489 489"><path fill="#f4ad31" d="M244.8 207.2c25.6-20.8 58.4-32.8 94.4-32.8 19.2 0 37.6 4 55.2 10.4.8-6.4 1.6-13.6 1.6-20 0-83.2-67.2-150.4-150.4-150.4S95.2 81.6 95.2 164.8c0 7.2.8 13.6 1.6 20 16.8-6.4 35.2-10.4 55.2-10.4 34.4 0 67.2 12.8 92.8 32.8z"/><path fill="#e2821a" d="M150.4 174.4c36 0 68 12.8 94.4 32.8 25.6-20.8 58.4-32.8 94.4-32.8 19.2 0 37.6 4 55.2 10.4.8-6.4 1.6-13.6 1.6-20 0-83.2-67.2-150.4-150.4-150.4"/><path fill="#d32a0f" d="M188 324.8c0-7.2.8-13.6 1.6-20-49.6-19.2-86.4-64.8-94.4-120C40 207.2 0 260.8 0 324.8 0 408 67.2 475.2 150.4 475.2c36 0 68-12.8 94.4-32.8-34.4-28-56.8-70.4-56.8-117.6z"/><path fill="#b71100" d="M150.4 475.2c36 0 68-12.8 94.4-32.8-34.4-27.2-56.8-69.6-56.8-117.6 0-7.2.8-13.6 1.6-20"/><path fill="#0878a0" d="M393.6 184.8c-7.2 55.2-44 100-94.4 120 .8 6.4 1.6 13.6 1.6 20 0 47.2-22.4 89.6-56.8 117.6 25.6 20.8 58.4 32.8 94.4 32.8 83.2 0 150.4-67.2 150.4-150.4.8-64-39.2-117.6-95.2-140z"/><path fill="#0c6c8e" d="M244.8 442.4c25.6 20.8 58.4 32.8 94.4 32.8 83.2 0 150.4-67.2 150.4-150.4"/><path fill="#3d3736" d="M244.8 207.2c-29.6 23.2-49.6 57.6-55.2 96.8 16.8 6.4 35.2 10.4 55.2 10.4 19.2 0 37.6-4 55.2-10.4-5.6-38.4-25.6-72.8-55.2-96.8z"/><path d="M244.8 315.2c19.2 0 37.6-4 55.2-10.4-5.6-39.2-25.6-73.6-55.2-96.8"/><path fill="#0caa7d" d="M300 304.8c49.6-19.2 86.4-64.8 94.4-120-16.8-6.4-35.2-10.4-55.2-10.4-35.2 0-68 12.8-94.4 32.8 29.6 24 49.6 58.4 55.2 97.6z"/><path fill="#720d20" d="M244.8 207.2c-25.6-20.8-58.4-32.8-94.4-32.8-19.2 0-37.6 4-55.2 10.4 7.2 55.2 44 100 94.4 120 5.6-39.2 25.6-73.6 55.2-97.6z"/><path fill="#783089" d="M301.6 324.8c0-7.2-.8-13.6-1.6-20-16.8 6.4-35.2 10.4-55.2 10.4-19.2 0-37.6-4-55.2-10.4-.8 6.4-1.6 13.6-1.6 20 0 47.2 22.4 89.6 56.8 117.6 34.4-28 56.8-70.4 56.8-117.6z"/></svg>