<svg xmlns="http://www.w3.org/2000/svg" viewBox="0 0 511 511"><path fill="#e2effa" d="M419.307 511.999H126.61v-52.065h325.213v19.548c0 17.959-14.558 32.517-32.516 32.517z"/><path fill="#caddea" d="M403.19 459.934v52.065h16.117c17.958 0 32.516-14.558 32.516-32.516v-19.548H403.19v-.001z"/><path fill="#5d6d7d" d="M32.206 129.605l22.83-4.651c34.073-6.942 54.454-42.064 43.573-75.092C86.797 20.292 58.441.657 26.606.004 13.592-.264 3.766 11.729 6.588 24.437l25.618 105.168z"/><path fill="#50616d" d="M98.609 49.862C86.797 20.292 58.441.657 26.606.004c-6.829-.14-12.776 3.099-16.483 8.042 17.334 8.476 31.368 23.167 38.818 41.816l22.716 68.952c23.65-13.124 35.917-41.741 26.952-68.952z"/><path fill="#35495d" d="M187.305 441.824l-81.553 18.11-74.61-335.203c-3.296-14.84 8.18-28.847 23.379-28.535l22.244.457c23.696.487 44.802 15.101 53.594 37.111l8.254 20.661c18.125 45.372 29.474 93.164 33.683 141.84l15.009 145.559z"/><path fill="#2a3a4c" d="M82.243 133.764l8.254 20.661c18.125 45.372 29.474 93.164 33.683 141.84l16.388 155.937 46.738-10.379-15.009-145.558c-4.209-48.676-15.558-96.468-33.683-141.84l-8.254-20.661c-8.792-22.01-29.898-36.624-53.594-37.111l-22.244-.457c-4.096-.084-7.917.879-11.256 2.611 17.466 4.864 32.047 17.61 38.977 34.957z"/><path fill="#35495d" d="M424.126 362.049l-293.702 38.55c-16.522 2.169-28.958 17.502-28.958 35.707 0 19.862 14.718 35.963 32.874 35.963h343.35c15.578 0 28.206-13.815 28.206-30.857.001-47.921-38.278-85.072-81.77-79.363z"/><path fill="#2a3a4c" d="M424.126 362.049l-19.561 2.568c30.149 9.583 52.698 40.016 52.698 76.796 0 17.042-12.628 30.857-28.206 30.857h48.634c15.578 0 28.206-13.815 28.206-30.857 0-47.922-38.279-85.073-81.771-79.364z"/><path fill="#d0d1d2" d="M121.012 511.999h62.461l-24.377-104.813c-4.317-19.35-23.502-31.537-42.852-27.22-19.343 4.315-31.529 23.49-27.223 42.835l19.003 78.966c1.445 6.002 6.814 10.232 12.988 10.232z"/><path fill="#bfc0c1" d="M159.097 407.186c-4.317-19.35-23.502-31.537-42.852-27.22-6.459 1.441-12.114 4.545-16.63 8.754 5.143 4.775 8.946 11.099 10.589 18.466l24.377 104.813h48.893l-24.377-104.813z"/></svg>