<svg xmlns="http://www.w3.org/2000/svg" viewBox="0 0 511 512"><path fill="#c7c9d3" d="M271.73 0h-32.25c-37.793 0-68.539 30.746-68.539 68.535v72.566c0 11.117 9.043 20.16 20.16 20.16 11.113 0 20.156-9.043 20.156-20.16V68.535c0-15.559 12.66-28.219 28.223-28.219h32.25c15.563 0 28.219 12.66 28.219 28.219v72.566c0 11.117 9.043 20.16 20.16 20.16 11.113 0 20.156-9.043 20.156-20.16V68.535C340.265 30.746 309.519 0 271.73 0zm0 0"/><path fill="#b4b7c5" d="M170.941 141.102c0 11.117 9.043 20.16 20.16 20.16 11.113 0 20.156-9.043 20.156-20.16v-32.25h-40.316zm0 0M299.949 108.852v32.25c0 11.117 9.043 20.16 20.16 20.16 11.113 0 20.156-9.043 20.156-20.16v-32.25zm0 0"/><path fill="#7b8199" d="M499.141 442.434l-65.555-274.145c-6.098-25.5-28.672-43.313-54.895-43.313H132.519c-26.223 0-48.797 17.813-54.895 43.313L12.069 442.434c-4.043 16.91-.188 34.438 10.586 48.086C33.425 504.172 49.573 512 66.964 512h377.281c17.391 0 33.539-7.828 44.309-21.48 10.77-13.648 14.629-31.176 10.586-48.086zm0 0"/><path fill="#696f8b" d="M479.715 487.813H102.43c-17.387 0-33.539-7.832-44.309-21.48-10.77-13.652-14.629-31.18-10.586-48.09l65.555-274.141c1.563-6.535 4.215-12.559 7.723-17.91-21.023 4.406-38.02 20.488-43.188 42.098L12.07 442.435c-4.043 16.91-.188 34.438 10.582 48.086 10.773 13.652 26.922 21.48 44.313 21.48h377.281c17.391 0 33.539-7.828 44.309-21.48 1.004-1.273 1.93-2.59 2.813-3.926-3.789.789-7.688 1.219-11.652 1.219zm0 0"/><path fill="#77dce9" d="M240.285 248.34c-5.34-7.113-15.469-8.559-22.578-3.227l-70.953 53.215v-40.313c0-8.891-7.234-16.125-16.125-16.125-8.895 0-16.129 7.234-16.129 16.125v145.133c0 8.891 7.234 16.125 16.129 16.125 8.891 0 16.125-7.234 16.125-16.125v-40.316l70.953 53.219c7.027 5.266 17.309 3.801 22.578-3.227 5.332-7.113 3.887-17.242-3.227-22.578l-79.555-59.664 79.555-59.664c7.113-5.336 8.559-15.465 3.227-22.578zm0 0M388.645 322.52h-56.441c-8.891 0-16.125 7.234-16.125 16.125v16.125c0 8.895 7.234 16.129 16.125 16.129s16.125-7.234 16.125-16.125h24.191v16.125c0 8.891-7.234 16.125-16.129 16.125h-40.313c-8.891 0-16.129-7.234-16.129-16.125v-80.633c0-8.891 7.238-16.125 16.129-16.125h40.313c8.895 0 16.129 7.234 16.129 16.125s7.234 16.129 16.125 16.129 16.125-7.238 16.125-16.129c0-26.676-21.703-48.375-48.379-48.375h-40.313c-26.676 0-48.379 21.699-48.379 48.375v80.633c0 26.672 21.703 48.375 48.379 48.375h40.313c26.676 0 48.379-21.703 48.379-48.375v-32.254c0-8.891-7.234-16.125-16.125-16.125zm0 0"/></svg>