<svg width="24" height="18" viewBox="0 0 24 18" fill="none" xmlns="http://www.w3.org/2000/svg">
<path d="M12.0204 0C12.0403 0.493514 12.06 0.987028 12.0799 1.48054C11.6957 1.48054 11.5036 1.48054 11.1194 1.48054C11.1393 0.987028 11.1591 0.493514 11.1789 0C10.3998 0 9.62067 0 8.84153 0C7.27526 5.9484 5.70873 11.8967 4.1425 17.8452C6.249 17.8452 8.3555 17.8452 10.462 17.8452C10.4818 17.3516 10.5016 16.8581 10.5215 16.3646C11.2403 16.3646 11.9591 16.3646 12.6779 16.3646C12.6978 16.8581 12.7176 17.3516 12.7374 17.8452C14.8439 17.8452 16.9503 17.8452 19.0568 17.8452C17.4906 11.8968 15.9241 5.94845 14.3578 0C13.5787 0 12.7996 0 12.0204 0ZM11.0303 3.69733C11.4098 3.69733 11.7894 3.69713 12.169 3.69723C12.2241 5.06952 12.2792 6.44192 12.3344 7.81416C11.8445 7.81416 11.3547 7.81416 10.8648 7.81416C10.9202 6.44197 10.9752 5.06962 11.0303 3.69733ZM10.6104 14.1478C10.6655 12.7755 10.7207 11.4032 10.7759 10.031C11.325 10.031 11.8742 10.0309 12.4234 10.0309C12.4785 11.4031 12.5337 12.7755 12.5888 14.1478C11.9294 14.1478 11.2699 14.1478 10.6104 14.1478Z" fill="#666666"/>
<path d="M15.8899 0C15.5716 0 15.4124 0 15.0941 0C17.0788 5.9484 19.0631 11.8968 21.0479 17.8452C21.765 17.8452 22.4821 17.8452 23.1992 17.8452C20.7629 11.8967 18.3264 5.9484 15.8899 0Z" fill="#666666"/>
<path d="M7.30934 0C4.87284 5.94845 2.43629 11.8967 0 17.8452C0.717144 17.8452 1.43424 17.8452 2.15138 17.8452C4.13593 11.8968 6.12043 5.94845 8.10508 0C7.7868 0 7.62761 0 7.30934 0Z" fill="#666666"/>
</svg>
