<svg width="19" height="21" viewBox="0 0 19 21" fill="none" xmlns="http://www.w3.org/2000/svg">
<path d="M9.5 0C3.9954 0 0 3.67992 0 8.75C0 11.3503 1.00495 14.3428 2.68807 16.7548C4.59886 19.4924 7.01705 21 9.5 21C11.983 21 14.4017 19.4924 16.3119 16.7548C17.9951 14.3428 19 11.3503 19 8.75C19 3.67992 15.0046 0 9.5 0V0ZM15.5455 14.875H13.8182V11.375H12.0909V14.875H10.3636V11.375H8.63636V14.875H6.90909V11.375H4.31818C4.08913 11.375 3.86946 11.2828 3.7075 11.1187C3.54554 10.9546 3.45455 10.7321 3.45455 10.5V6.125H5.18182V9.625H6.90909V6.125H8.63636V9.625H10.3636V6.125H12.0909V9.625H13.8182V6.125H15.5455V14.875Z" fill="#666666"/>
</svg>
