<svg width="23" height="23" viewBox="0 0 23 23" fill="none" xmlns="http://www.w3.org/2000/svg">
<path d="M10.3027 12.7974C10.7649 12.5086 11.1834 12.1565 11.5462 11.7527L12.8538 12.5079L14.0445 10.4455L12.7394 9.69201C12.9054 9.18544 13.003 8.64811 13.0213 8.09112L14.5059 7.82934L14.0922 5.48418L12.6079 5.74597C12.4027 5.23753 12.1275 4.76477 11.7937 4.3399L12.7641 3.18365L10.9398 1.65305L9.97034 2.80832C9.4968 2.55457 8.984 2.36488 8.44356 2.25106V0.744385H6.06225V2.25106C5.52176 2.36488 5.00895 2.55457 4.53537 2.80832L3.56591 1.65305L1.74169 3.1837L2.71191 4.33995C2.3782 4.76482 2.10299 5.23764 1.89784 5.74602L0.413453 5.48424L0 7.8294L1.48444 8.09118C1.50274 8.64822 1.6004 9.18544 1.76632 9.69218L0.461189 10.4456L1.6519 12.5079L2.9596 11.753C3.32221 12.1566 3.74079 12.5088 4.20302 12.7976L3.68683 14.2156L5.92461 15.0299L6.44009 13.6138C6.70575 13.6514 6.97703 13.6713 7.25291 13.6713C7.52878 13.6713 7.80012 13.6515 8.06577 13.6138L8.5812 15.03L10.8189 14.2155L10.3027 12.7974ZM7.2528 10.9403C5.57594 10.9403 4.2117 9.57617 4.2117 7.89925C4.2117 6.22245 5.57594 4.85816 7.2528 4.85816C8.92966 4.85816 10.2939 6.22245 10.2939 7.89925C10.2939 9.57617 8.92971 10.9403 7.2528 10.9403Z" fill="#666666"/>
<path d="M20.5383 14.5855L19.5118 14.9176C19.3161 14.5774 19.0741 14.2694 18.7955 14.0012L19.3692 13.0856L17.9247 12.1806L17.3514 13.0954C16.9907 12.9623 16.6085 12.8784 16.2139 12.8512L16.0651 11.783L14.3767 12.0183L14.5256 13.0866C14.1537 13.2205 13.8087 13.4059 13.4981 13.6325L12.6968 12.9092L11.5546 14.1745L12.3566 14.8987C12.1621 15.2329 12.0138 15.5952 11.9186 15.9761L10.8402 15.9371L10.7786 17.6405L11.8569 17.6796C11.9249 18.0727 12.0473 18.4438 12.215 18.7868L11.3642 19.45L12.4121 20.7944L13.2646 20.13C13.5616 20.3803 13.8933 20.5886 14.2494 20.7478L14.0234 21.8043L15.6904 22.1604L15.9161 21.1055C16.1082 21.1061 16.3024 21.093 16.4979 21.0658C16.6936 21.0386 16.8841 20.9976 17.0685 20.9448L17.574 21.898L19.0801 21.0993L18.574 20.1451C18.8733 19.8946 19.135 19.6034 19.3524 19.2815L20.354 19.6876L20.9945 18.1079L19.9948 17.7025C20.0622 17.327 20.0783 16.9364 20.0365 16.5395L21.0633 16.2072L20.5383 14.5855ZM16.2284 19.1296C15.0393 19.2952 13.9372 18.4628 13.7717 17.2739C13.6058 16.0849 14.4384 14.9828 15.6274 14.8173C16.8163 14.6515 17.9181 15.484 18.0841 16.6731C18.2495 17.8619 17.4172 18.9638 16.2284 19.1296Z" fill="#666666"/>
<path d="M22.838 8.67829L22.878 7.33312L22.0267 7.30783C21.9734 7.01137 21.878 6.7178 21.7381 6.43554L22.4066 5.90739L21.5725 4.85164L20.9041 5.37957C20.6657 5.18147 20.402 5.01997 20.1221 4.89806L20.2949 4.06291L18.9774 3.79004L18.8043 4.62465C18.5006 4.62508 18.1949 4.66818 17.8954 4.75638L17.4917 4.00665L16.3068 4.6448L16.7104 5.39464C16.4721 5.59596 16.2677 5.82798 16.1 6.08096L15.3083 5.76582L14.8107 7.01617L15.6031 7.33181C15.5509 7.63264 15.5408 7.94123 15.575 8.24932L14.7662 8.51684L15.1885 9.79461L15.9973 9.52721C16.1557 9.79953 16.3483 10.0404 16.5667 10.2482L16.1194 10.9729L17.2643 11.6799L17.7127 10.954C18.0013 11.0575 18.3041 11.1206 18.6113 11.1404L18.7343 11.9844L20.066 11.7899L19.9433 10.947C20.0855 10.8947 20.2257 10.8318 20.363 10.7578C20.5004 10.684 20.6302 10.6013 20.7521 10.5115L21.3882 11.078L22.2833 10.0731L21.6466 9.50601C21.7993 9.23839 21.9129 8.95088 21.9854 8.65295L22.838 8.67829ZM19.6314 9.39907C18.7968 9.84841 17.7524 9.53518 17.3033 8.7009C16.8538 7.86651 17.167 6.82185 18.0017 6.37273C18.8358 5.92328 19.8802 6.23673 20.3297 7.07112C20.7788 7.90556 20.4657 8.94968 19.6314 9.39907Z" fill="#666666"/>
</svg>
